<?xml version="1.0" standalone="no"?>
<svg xmlns="http://www.w3.org/2000/svg" viewBox="0 0 138.44 58.36" width="138.44" height="58.36"><rect fill="#2e0576" width="138.44" height="58.36" x="0" y="0"></rect><g fill="white" color="white" transform="translate(92.081 12) scale(0.7158334)"><svg width="48.0" height="48.0" x="0.0" y="0.0" viewBox="0 0 48 48"><g><path d="M45.5,0.5H2.5c-1.1,0-2,0.9-2,2v10.1h47V2.5C47.5,1.4,46.6,0.5,45.5,0.5z M9.1,8.5L9.1,8.5c-1.1,0-2-0.9-2-2s0.9-2,2-2   s2,0.9,2,2S10.2,8.5,9.1,8.5z M18.7,8.5L18.7,8.5c-1.1,0-2-0.9-2-2s0.9-2,2-2s2,0.9,2,2S19.7,8.5,18.7,8.5z"></path><path d="M0.5,16.5v29.1c0,1.1,0.9,2,2,2h43.1c1.1,0,2-0.9,2-2V16.5H0.5z M19.6,28.5l-8.6,3.5l8.6,3.6v2L8.7,33v-1.9l10.9-4.6V28.5z    M22.4,40.5h-1.6l4.8-17h1.6L22.4,40.5z M39.3,33l-10.9,4.6v-2l8.6-3.6l-8.6-3.5v-2l10.9,4.6V33z"></path></g></svg></g><path fill="white" fill-rule="nonzero" d="M6.84 34.36L0 34.36L0 0L6.80 0L6.80 13.76L10 0L16.92 0L13.08 15.72L17.72 34.36L10.60 34.36L6.84 17.72L6.84 34.36ZM24.64 34.36L17.96 34.36L21.28 0L32.92 0L36.20 34.36L29.68 34.36L29.20 28.80L25.04 28.80L24.64 34.36ZM26.84 5.84L25.56 23.32L28.68 23.32L27.16 5.84L26.84 5.84ZM44.48 34.36L38.28 34.36L38.28 0L48.76 0L51.64 20.96L54.52 0L65.08 0L65.08 34.36L58.80 34.36L58.80 9.60L54.84 34.36L48.68 34.36L44.48 9.60L44.48 34.36Z" transform="translate(12 12) scale(1)"></path></svg>